<svg xmlns="http://www.w3.org/2000/svg" version="1.1" xmlns:xlink="http://www.w3.org/1999/xlink" xmlns:svgjs="http://svgjs.dev/svgjs" width="1000" height="1000" viewBox="0 0 1000 1000"><rect width="1000" height="1000" fill="#000000"></rect><g transform="matrix(0.7,0,0,0.7,149.57576846216074,427.26449943687135)"><svg viewBox="0 0 396 82" data-background-color="#1d366f" preserveAspectRatio="xMidYMid meet" height="207" width="1000" xmlns="http://www.w3.org/2000/svg" xmlns:xlink="http://www.w3.org/1999/xlink"><g id="tight-bounds" transform="matrix(1,0,0,1,0.2399938414062035,0.1617211071361453)"><svg viewBox="0 0 395.52 81.67669718038066" height="81.67669718038066" width="395.52"><g><svg viewBox="0 0 533.5739051281557 110.18546286535583" height="81.67669718038066" width="395.52"><g><rect width="4.469173256946904" height="80.1276339939816" x="121.88532543941068" y="15.028914435687113" fill="#ffffff" opacity="1" stroke-width="0" stroke="transparent" fill-opacity="1" class="rect-o-0" data-fill-palette-color="primary" rx="1%" id="o-0" data-palette-color="#ffffff"></rect></g><g transform="matrix(1,0,0,1,138.05390512815575,15.22823690830895)"><svg viewBox="0 0 395.52 79.72898904873793" height="79.72898904873793" width="395.52"><g id="textblocktransform"><svg viewBox="0 0 395.52 79.72898904873793" height="79.72898904873793" width="395.52" id="textblock"><g><svg viewBox="0 0 395.52 49.5577967764541" height="49.5577967764541" width="395.52"><g transform="matrix(1,0,0,1,0,0)"><svg width="395.52" viewBox="1.1700000762939453 -32.810001373291016 346.8599853515625 43.650001525878906" height="49.5577967764541" data-palette-color="#ffffff"><g class="undefined-text-0" data-fill-palette-color="primary" id="text-0"><path d="M16.02-29.98L16.02-29.98Q11.82-29.98 9.55-26.2 7.28-22.41 7.28-17.09L7.28-17.09Q7.28-13.48 8.3-10.16 9.33-6.84 11.74-4.44 14.16-2.05 17.58-2.05L17.58-2.05Q21.73-2.05 24.02-5.88 26.32-9.72 26.32-15.09L26.32-15.09Q26.32-17.87 25.73-20.41 25.15-22.95 23.95-25.15 22.75-27.34 20.7-28.66 18.65-29.98 16.02-29.98ZM32.57 3.86L32.57 3.86Q33.45 3.86 34.23 3.74 35.01 3.61 35.5 3.52 35.99 3.42 36.08 3.42L36.08 3.42Q36.67 3.42 36.67 4.39L36.67 4.39 36.67 4.64Q32.57 6.84 27.73 6.84L27.73 6.84Q25.93 6.84 23.85 5.98 21.78 5.13 20.17 4.03 18.55 2.93 16.41 1.73 14.26 0.54 12.6 0L12.6 0Q10.84-0.54 8.96-1.81 7.08-3.08 5.3-5.03 3.52-6.98 2.34-9.89 1.17-12.79 1.17-16.02L1.17-16.02Q1.17-20.51 3.27-24.32 5.37-28.13 8.96-30.35 12.55-32.57 16.77-32.57 21-32.57 24.61-30.35 28.22-28.13 30.32-24.32 32.42-20.51 32.42-16.02L32.42-16.02Q32.42-12.74 31.3-9.84 30.18-6.93 28.49-4.98 26.81-3.03 24.98-1.81 23.14-0.59 21.48-0.24L21.48-0.24Q22.75 0.39 24.41 1.32 26.07 2.25 26.95 2.69 27.83 3.13 29.3 3.49 30.76 3.86 32.57 3.86ZM53.85-4.79L53.85-4.79Q52.83-5.86 51.05-8.35 49.27-10.84 48-12.79L48-12.79 46.73-14.7Q44.97-13.48 44.02-12.04 43.06-10.6 43.06-8.2L43.06-8.2Q43.06-5.27 44.72-3.81 46.38-2.34 48.83-2.34L48.83-2.34Q50.19-2.34 51.58-3.05 52.98-3.76 53.85-4.79ZM50.39-29.88L50.39-29.88Q48.83-29.88 47.95-28.76 47.07-27.64 47.07-26.07L47.07-26.07Q47.07-23.73 49.51-19.34L49.51-19.34Q51.71-20.7 52.71-22.05 53.71-23.39 53.71-25.73L53.71-25.73Q53.71-27.29 52.81-28.59 51.9-29.88 50.39-29.88ZM50.29-32.03L50.29-32.03Q53.81-32.03 55.88-30.47 57.96-28.91 57.96-26.27L57.96-26.27Q57.96-23.29 56.13-21.22 54.29-19.14 50.88-17.09L50.88-17.09Q53.37-12.99 57.22-8.4L57.22-8.4Q59.91-12.11 59.91-12.99L59.91-12.99Q59.91-13.48 59.45-13.65 58.98-13.82 58.37-13.84 57.76-13.87 57.71-13.87L57.71-13.87Q57.57-14.16 57.57-14.65 57.57-15.14 57.71-15.23L57.71-15.23 62.2-15.23Q63.13-15.23 67.58-15.43L67.58-15.43Q67.82-15.28 67.82-14.65L67.82-14.65Q67.82-13.87 67.48-13.77L67.48-13.77Q66.89-13.77 65.77-13.5 64.65-13.23 64.16-12.89L64.16-12.89Q63.96-12.79 63.13-11.65 62.3-10.5 61.08-8.86 59.86-7.23 58.98-6.2L58.98-6.2Q59.08-6.05 59.59-5.52 60.1-4.98 60.3-4.79 60.5-4.59 60.94-4.17 61.37-3.76 61.67-3.59 61.96-3.42 62.33-3.27 62.69-3.13 63.03-3.13L63.03-3.13Q63.86-3.13 64.72-3.96 65.57-4.79 65.92-5.47L65.92-5.47Q66.31-5.47 66.75-5.13 67.19-4.79 67.19-4.49L67.19-4.49Q67.04-4.15 66.62-3.52 66.21-2.88 65.5-2.03 64.79-1.17 63.64-0.54 62.5 0.1 61.23 0.1L61.23 0.1Q59.76 0.1 58.35-0.68 56.93-1.46 56.25-2.25L56.25-2.25 55.56-3.03Q51.9 0.2 47.17 0.2L47.17 0.2Q43.02 0.2 40.31-1.86 37.6-3.91 37.6-7.81L37.6-7.81Q37.6-9.52 38.25-10.99 38.91-12.45 40.18-13.62 41.45-14.79 42.53-15.55 43.6-16.31 45.21-17.19L45.21-17.19Q45.16-17.24 44.82-17.82 44.48-18.41 44.41-18.53 44.33-18.65 44.04-19.19 43.75-19.73 43.65-19.92 43.55-20.12 43.31-20.65 43.06-21.19 42.99-21.48 42.92-21.78 42.75-22.27 42.58-22.75 42.53-23.12 42.48-23.49 42.43-23.95 42.38-24.41 42.38-24.9L42.38-24.9Q42.38-28.13 44.65-30.08 46.92-32.03 50.29-32.03ZM88.67-32.23L88.67-32.23 98.92-6.64Q99.65-4.69 100.39-3.08L100.39-3.08Q100.68-2.34 101.95-1.9 103.22-1.46 103.8-1.46L103.8-1.46Q104-1.46 104-0.59L104-0.59Q104 0 103.9 0.15L103.9 0.15Q98.04-0.15 97.75-0.15L97.75-0.15Q97.41-0.15 91.4 0.15L91.4 0.15Q91.21-0.05 91.21-0.76 91.21-1.46 91.4-1.46L91.4-1.46Q91.99-1.46 93.01-1.76 94.04-2.05 94.23-2.44L94.23-2.44Q94.38-2.73 94.38-3.08L94.38-3.08Q94.38-4.05 93.45-6.45L93.45-6.45 91.74-10.99Q91.55-11.18 91.4-11.18L91.4-11.18Q89.84-11.28 87.2-11.28 84.57-11.28 81.64-11.13L81.64-11.13Q81.34-11.13 81.34-10.94L81.34-10.94 79.49-6.4Q78.56-3.86 78.56-3.22 78.56-2.59 79.1-2.25L79.1-2.25Q79.54-1.95 80.63-1.71 81.73-1.46 82.12-1.46L82.12-1.46Q82.27-1.42 82.27-0.78 82.27-0.15 82.17 0.15L82.17 0.15Q81.93 0.15 79.88 0 77.83-0.15 76.56-0.15 75.29-0.15 73.55-0.02 71.82 0.1 71.09 0.15L71.09 0.15Q70.89-0.05 70.89-0.59L70.89-0.59Q70.89-1.46 70.99-1.46L70.99-1.46Q71.58-1.46 72.87-1.88 74.16-2.29 74.51-2.83L74.51-2.83Q75.43-4.3 76.36-6.64L76.36-6.64 85.44-28.61Q86.57-31.54 87.25-32.13L87.25-32.13Q87.64-32.47 88.08-32.47L88.08-32.47Q88.42-32.47 88.67-32.23ZM82.81-14.06L82.81-14.06Q84.52-13.92 86.32-13.92L86.32-13.92Q88.03-13.92 90.33-14.06L90.33-14.06 90.42-14.26 86.71-24.02 82.71-14.26Q82.71-14.06 82.81-14.06Z" fill="#ffffff" data-fill-palette-color="primary"></path><path d="M121.77-25.29L121.77-25.29 121.77-5.57Q121.77 1.66 118.11 6.25 114.45 10.84 108.44 10.84L108.44 10.84Q107.71 10.84 106.83 10.55 105.95 10.25 105.76 10.06L105.76 10.06Q105.12 9.23 105.12 7.86L105.12 7.86Q105.12 6.74 106.05 5.96 106.98 5.18 108.2 5.18L108.2 5.18Q109.22 5.18 110.42 6.45 111.62 7.71 112.3 7.71L112.3 7.71Q114.11 7.71 115.16 4.37 116.21 1.03 116.21-5.18L116.21-5.18 116.21-25.59Q116.21-28.32 115.87-29.59L115.87-29.59Q115.72-30.18 114.52-30.44 113.33-30.71 112.54-30.71L112.54-30.71Q112.35-30.71 112.35-31.45L112.35-31.45Q112.35-32.23 112.45-32.32L112.45-32.32Q113.18-32.28 114.55-32.2 115.91-32.13 117.04-32.08 118.16-32.03 119.14-32.03L119.14-32.03Q119.48-32.03 125.34-32.32L125.34-32.32Q125.48-31.88 125.48-31.54L125.48-31.54Q125.48-30.71 125.29-30.71L125.29-30.71Q124.85-30.71 123.56-30.32 122.26-29.93 122.16-29.59L122.16-29.59Q121.77-28.08 121.77-25.29ZM134.56-32.03L134.56-32.03Q135.44-32.03 140.81-32.32L140.81-32.32Q140.91-31.93 140.91-31.54L140.91-31.54Q140.91-30.71 140.72-30.71L140.72-30.71Q140.28-30.71 138.96-30.35 137.64-29.98 137.59-29.59L137.59-29.59Q137.2-28.13 137.2-25.29L137.2-25.29 137.2-14.06Q137.2-9.03 139.37-6.03 141.55-3.03 145.4-3.03L145.4-3.03Q149.16-3.03 151.43-5.49 153.7-7.96 153.7-13.67L153.7-13.67 153.7-25.59Q153.7-28.56 153.22-29.49L153.22-29.49Q152.92-29.93 151.48-30.35 150.04-30.76 149.41-30.76L149.41-30.76Q149.21-30.76 149.19-31.45 149.16-32.13 149.31-32.32L149.31-32.32Q154.58-31.98 155.46-31.98L155.46-31.98Q156.68-31.98 158.71-32.15 160.74-32.32 161.22-32.32L161.22-32.32Q161.32-31.98 161.32-31.54L161.32-31.54Q161.32-30.76 161.13-30.76L161.13-30.76Q160.44-30.76 159.03-30.4 157.61-30.03 157.17-29.39L157.17-29.39Q156.63-28.17 156.63-25.34L156.63-25.34 156.63-13.87Q156.63-10.06 155.71-7.3 154.78-4.54 153.07-2.95 151.36-1.37 149.19-0.63 147.02 0.1 144.23 0.1L144.23 0.1Q138.37 0.1 135-3.44 131.63-6.98 131.63-14.84L131.63-14.84 131.63-25.49Q131.63-28.61 131.24-29.59L131.24-29.59Q131.05-29.98 129.88-30.35 128.7-30.71 128.12-30.71L128.12-30.71Q127.92-30.71 127.92-31.45 127.92-32.18 128.07-32.32L128.07-32.32Q134.27-32.03 134.56-32.03ZM190.42-12.26L190.42-25.54Q190.42-28.13 189.93-29.44L189.93-29.44Q189.69-30.03 188.3-30.37 186.91-30.71 186.12-30.71L186.12-30.71Q185.93-30.71 185.9-31.42 185.88-32.13 186.03-32.32L186.03-32.32Q191.25-31.98 192.18-31.98L192.18-31.98Q193.45-31.98 195.45-32.15 197.45-32.32 197.94-32.32L197.94-32.32Q198.04-32.13 198.04-31.54L198.04-31.54Q198.04-30.71 197.84-30.71L197.84-30.71Q197.16-30.71 195.74-30.35 194.33-29.98 193.89-29.35L193.89-29.35Q193.35-28.03 193.35-25.29L193.35-25.29 193.35-6.79Q193.35-5.03 193.55 0.05L193.55 0.05Q193.35 0.24 192.47 0.24L192.47 0.24Q191.69 0.24 190.91-0.88L190.91-0.88 171.48-26.66 171.48-6.88Q171.48-3.96 171.87-2.88L171.87-2.88Q172.11-2.29 173.67-1.88 175.24-1.46 175.87-1.46L175.87-1.46Q176.02-1.46 176.04-0.78 176.07-0.1 175.97 0.15L175.97 0.15Q170.11-0.15 169.86-0.15L169.86-0.15Q168.55-0.15 166.62-0.02 164.69 0.1 164.05 0.15L164.05 0.15Q163.86-0.05 163.86-0.68L163.86-0.68Q163.86-1.46 164.05-1.46L164.05-1.46Q164.88-1.46 166.28-1.83 167.67-2.2 168.06-2.93L168.06-2.93Q168.55-3.96 168.55-7.03L168.55-7.03 168.55-26.17Q168.55-28.81 168.01-29.74L168.01-29.74Q167.81-30.08 166.32-30.37 164.83-30.66 164.15-30.66L164.15-30.66Q163.96-30.66 163.93-31.4 163.91-32.13 164.1-32.32L164.1-32.32Q169.23-32.08 169.91-32.08L169.91-32.08Q171.52-32.08 174.31-32.32L174.31-32.32Q175.24-30.57 177.7-27.12 180.17-23.68 184.46-18.04 188.76-12.4 190.32-10.25L190.32-10.25Q190.42-10.84 190.42-12.26L190.42-12.26ZM229.24-8.89L229.24-8.89Q229.24-8.25 228.5-5.1 227.77-1.95 227.38-1.76L227.38-1.76Q223.13 0.29 216.05 0.29L216.05 0.29Q209.61 0.29 205.07-4.44 200.53-9.18 200.53-15.72L200.53-15.72Q200.53-22.66 205.16-27.61 209.8-32.57 216.59-32.57L216.59-32.57Q222.11-32.57 228.11-31.25L228.11-31.25Q228.26-31.2 228.41-28.05 228.55-24.9 228.55-24.12L228.55-24.12Q228.55-23.39 227.38-23.39L227.38-23.39Q227.09-23.39 226.7-23.58L226.7-23.58Q226.5-24.46 225.99-25.39 225.48-26.32 224.45-27.49 223.43-28.66 221.42-29.42 219.42-30.18 216.79-30.18L216.79-30.18Q212-30.18 209.34-26.22 206.68-22.27 206.68-16.75L206.68-16.75Q206.68-10.6 209.68-6.32 212.68-2.05 218.15-2.05L218.15-2.05Q222.5-2.05 225.04-4.79L225.04-4.79Q225.67-5.47 226.18-6.62 226.7-7.76 226.97-8.54 227.23-9.33 227.33-9.33L227.33-9.33Q229.04-9.33 229.24-8.89ZM241.27-32.15Q244.57-32.03 246.67-32.03 248.77-32.03 252.09-32.15 255.41-32.28 257.41-32.32L257.41-32.32Q258.63-32.32 260.78-32.81L260.78-32.81 261.7-25.34Q261.36-25 260.39-25L260.39-25Q260-25 259.9-25.24L259.9-25.24Q259.21-27.93 258.09-28.88 256.97-29.83 254.58-29.83L254.58-29.83Q250.03-29.83 249.84-29L249.84-29Q249.4-27.59 249.4-24.41L249.4-24.41 249.4-6.79Q249.4-4.15 249.84-2.54L249.84-2.54Q249.89-2.2 251.16-1.83 252.43-1.46 252.87-1.46L252.87-1.46Q253.06-1.46 253.06-0.59L253.06-0.59Q253.06-0.1 252.96 0.2L252.96 0.2Q252.33 0.15 251.08 0.05 249.84-0.05 248.79-0.1 247.74-0.15 246.76-0.15L246.76-0.15Q245.45-0.15 243.13 0 240.81 0.15 240.27 0.2L240.27 0.2Q240.07 0 240.07-0.59L240.07-0.59Q240.07-1.46 240.27-1.46L240.27-1.46Q240.86-1.46 242.1-1.81 243.35-2.15 243.49-2.54L243.49-2.54Q243.88-3.86 243.88-6.59L243.88-6.59 243.88-24.27Q243.88-28.32 243.44-29L243.44-29Q243.05-29.83 238.8-29.83L238.8-29.83Q236.41-29.83 235.29-28.88 234.17-27.93 233.43-25.29L233.43-25.29Q233.38-25 232.95-25L232.95-25Q232.02-25 231.68-25.39L231.68-25.39 232.6-32.81Q234.75-32.32 235.97-32.32L235.97-32.32Q237.97-32.28 241.27-32.15ZM268-6.64L268-25.49Q268-28.42 267.61-29.59L267.61-29.59Q267.42-29.98 266.24-30.35 265.07-30.71 264.49-30.71L264.49-30.71Q264.29-30.71 264.29-31.45L264.29-31.45Q264.29-32.23 264.39-32.32L264.39-32.32Q264.63-32.32 267.1-32.18 269.56-32.03 270.88-32.03L270.88-32.03Q271.27-32.03 277.13-32.32L277.13-32.32Q277.28-31.88 277.28-31.54L277.28-31.54Q277.28-30.71 277.08-30.71L277.08-30.71Q276.64-30.71 275.33-30.32 274.01-29.93 273.91-29.59L273.91-29.59Q273.52-28.08 273.52-25.29L273.52-25.29 273.52-6.93Q273.52-4.25 273.96-2.54L273.96-2.54Q274.06-2.2 275.3-1.83 276.55-1.46 276.99-1.46L276.99-1.46Q277.18-1.46 277.18-0.54L277.18-0.54Q277.18-0.15 277.08 0.15L277.08 0.15Q271.22-0.15 270.88-0.15L270.88-0.15Q269.91-0.15 268.83-0.1 267.76-0.05 266.46 0.02 265.17 0.1 264.39 0.15L264.39 0.15Q264.19-0.05 264.19-0.54L264.19-0.54Q264.19-1.46 264.39-1.46L264.39-1.46Q264.97-1.46 266.22-1.81 267.46-2.15 267.61-2.54L267.61-2.54Q268-4.05 268-6.64L268-6.64ZM294.81-30.18L294.81-30.18Q290.61-30.18 288.38-26.34 286.16-22.51 286.16-17.09L286.16-17.09Q286.16-13.43 287.16-10.11 288.16-6.79 290.56-4.37 292.95-1.95 296.32-1.95L296.32-1.95Q300.47-1.95 302.74-5.83 305.01-9.72 305.01-15.09L305.01-15.09Q305.01-18.85 304.03-22.14 303.06-25.44 300.66-27.81 298.27-30.18 294.81-30.18ZM284.5-4.35Q279.91-9.18 279.91-16.02 279.91-22.85 284.5-27.71 289.09-32.57 295.54-32.57 301.98-32.57 306.6-27.71 311.21-22.85 311.21-16.02 311.21-9.18 306.6-4.35 301.98 0.49 295.54 0.49 289.09 0.49 284.5-4.35ZM340.41-12.26L340.41-25.54Q340.41-28.13 339.92-29.44L339.92-29.44Q339.68-30.03 338.28-30.37 336.89-30.71 336.11-30.71L336.11-30.71Q335.92-30.71 335.89-31.42 335.87-32.13 336.01-32.32L336.01-32.32Q341.24-31.98 342.17-31.98L342.17-31.98Q343.44-31.98 345.44-32.15 347.44-32.32 347.93-32.32L347.93-32.32Q348.03-32.13 348.03-31.54L348.03-31.54Q348.03-30.71 347.83-30.71L347.83-30.71Q347.15-30.71 345.73-30.35 344.31-29.98 343.88-29.35L343.88-29.35Q343.34-28.03 343.34-25.29L343.34-25.29 343.34-6.79Q343.34-5.03 343.53 0.05L343.53 0.05Q343.34 0.24 342.46 0.24L342.46 0.24Q341.68 0.24 340.9-0.88L340.9-0.88 321.46-26.66 321.46-6.88Q321.46-3.96 321.85-2.88L321.85-2.88Q322.1-2.29 323.66-1.88 325.22-1.46 325.86-1.46L325.86-1.46Q326-1.46 326.03-0.78 326.05-0.1 325.96 0.15L325.96 0.15Q320.1-0.15 319.85-0.15L319.85-0.15Q318.53-0.15 316.6-0.02 314.68 0.1 314.04 0.15L314.04 0.15Q313.85-0.05 313.85-0.68L313.85-0.68Q313.85-1.46 314.04-1.46L314.04-1.46Q314.87-1.46 316.26-1.83 317.65-2.2 318.05-2.93L318.05-2.93Q318.53-3.96 318.53-7.03L318.53-7.03 318.53-26.17Q318.53-28.81 318-29.74L318-29.74Q317.8-30.08 316.31-30.37 314.82-30.66 314.14-30.66L314.14-30.66Q313.94-30.66 313.92-31.4 313.89-32.13 314.09-32.32L314.09-32.32Q319.22-32.08 319.9-32.08L319.9-32.08Q321.51-32.08 324.3-32.32L324.3-32.32Q325.22-30.57 327.69-27.12 330.15-23.68 334.45-18.04 338.75-12.4 340.31-10.25L340.31-10.25Q340.41-10.84 340.41-12.26L340.41-12.26Z" fill="#ffffff" data-fill-palette-color="secondary"></path></g></svg></g></svg></g><g transform="matrix(1,0,0,1,0,61.25720320825228)"><svg viewBox="0 0 232.209792 18.471785840485662" height="18.471785840485662" width="232.209792"><g transform="matrix(1,0,0,1,0,0)"><svg width="232.209792" viewBox="1.0499999523162842 -37.5 477.6500244140625 38" height="18.471785840485662" data-palette-color="#08c076"><path d="M35.7-18.1L35.7-18.1Q35.7-7.8 29.9-3.75L29.9-3.75Q24.55 0 15.2 0L15.2 0 1.05 0 1.05-0.95 4.35-0.95 4.35-34.05 1.05-34.05 1.05-35 16.5-35Q26.1-35 30.9-31.08 35.7-27.15 35.7-18.1ZM14.1-34.05L14.1-0.95 16-0.95Q21.05-0.95 23.23-4.53 25.4-8.1 25.4-16.5L25.4-16.5 25.4-19.4Q25.4-30.65 21.1-32.95L21.1-32.95Q19.05-34.05 15.3-34.05L15.3-34.05 14.1-34.05ZM45.6-27.25Q42.95-27.25 41.82-28.6 40.7-29.95 40.7-31.95 40.7-33.95 41.92-35.25 43.15-36.55 45.65-36.55 48.15-36.55 49.45-35.38 50.75-34.2 50.75-32.02 50.75-29.85 49.5-28.55 48.25-27.25 45.6-27.25ZM38.05-22.9L38.05-23.8 50.3-23.8 50.3-0.9 53.1-0.9 53.1 0 38.25 0 38.25-0.9 41-0.9 41-22.9 38.05-22.9ZM55.85 0.5L55.25 0.5 55.25-8.45 55.85-8.45Q57.15-4.1 59.35-2.35 61.55-0.6 64.84-0.6L64.84-0.6Q69.95-0.6 69.95-3.85L69.95-3.85Q69.95-5.25 68.7-5.95L68.7-5.95Q66.75-7.05 63.7-7.65L63.7-7.65Q60.3-8.55 58-10.05L58-10.05Q55.25-11.85 55.25-15.75 55.25-19.65 57.65-21.98 60.05-24.3 64.05-24.3L64.05-24.3Q66.5-24.3 69.09-23.15L69.09-23.15Q70.05-22.75 70.55-22.75 71.05-22.75 71.4-23.1 71.75-23.45 72.25-24.4L72.25-24.4 72.8-24.4 72.8-16.75 72.2-16.75Q69.65-23.25 64.3-23.25L64.3-23.25Q61.95-23.25 60.8-22.43 59.65-21.6 59.65-20.35L59.65-20.35Q59.65-19.6 60-19.18 60.35-18.75 60.55-18.55 60.75-18.35 61.2-18.13 61.65-17.9 61.95-17.78 62.25-17.65 62.87-17.45 63.5-17.25 63.8-17.2L63.8-17.2Q67.2-16.35 68.7-15.73 70.2-15.1 71.55-14.2L71.55-14.2Q74.3-12.3 74.3-8.08 74.3-3.85 71.8-1.68 69.3 0.5 64.95 0.5L64.95 0.5Q61.85 0.5 58.95-0.95L58.95-0.95Q58.35-1.35 58-1.35L58-1.35Q56.9-1.35 55.85 0.5L55.85 0.5ZM89.79-23.4L89.79-23.4Q87.59-23.4 86.64-21 85.69-18.6 85.69-13.05L85.69-13.05 85.69-10.45Q85.69-5.5 86.79-3.35 87.89-1.2 90.84-1.2 93.79-1.2 95.54-3.2 97.29-5.2 97.79-7.75L97.79-7.75 98.69-7.65Q97.74-3.35 95.19-1.45L95.19-1.45Q92.59 0.5 88.04 0.5L88.04 0.5Q82.24 0.5 79.14-2.63 76.04-5.75 76.04-11.78 76.04-17.8 79.57-21.05 83.09-24.3 89.39-24.3L89.39-24.3Q93.84-24.3 96.19-22.58 98.54-20.85 98.54-18.25 98.54-15.65 97.42-14.45 96.29-13.25 94.32-13.25 92.34-13.25 91.14-14.3 89.94-15.35 89.94-17.4L89.94-17.4Q89.94-18.3 90.19-19.2L90.19-19.2 91.84-19.2Q92.19-20.2 92.19-21L92.19-21Q92.19-23.4 89.79-23.4ZM116.09-9.85L116.09-9.85 116.09-14.1Q116.09-18.95 115.57-21.18 115.04-23.4 113.14-23.4L113.14-23.4Q112.04-23.4 111.37-22.78 110.69-22.15 110.39-20.7L110.39-20.7Q109.94-18.45 109.94-13.85L109.94-13.85 109.94-9.95Q109.94-4.5 110.27-3.4 110.59-2.3 110.94-1.6L110.94-1.6Q111.49-0.4 113.09-0.4L113.09-0.4Q115.04-0.4 115.64-2.65L115.64-2.65Q116.09-4.25 116.09-9.85ZM112.99 0.5Q106.74 0.5 103.54-2.7 100.34-5.9 100.34-11.88 100.34-17.85 103.77-21.08 107.19-24.3 113.39-24.3 119.59-24.3 122.64-21.33 125.69-18.35 125.69-12.25L125.69-12.25Q125.69 0.5 112.99 0.5L112.99 0.5ZM127.39-22.9L125.34-22.9 125.34-23.8 140.29-23.8 140.29-22.9 137.14-22.9 143.14-6.3 148.54-22.9 145.19-22.9 145.19-23.8 151.94-23.8 151.94-22.9 149.74-22.9 142.34 0 136.64 0 127.39-22.9ZM164.34 0.5Q157.89 0.5 154.66-2.83 151.44-6.15 151.44-12.08 151.44-18 155.06-21.15 158.69-24.3 164.29-24.3L164.29-24.3Q175.64-24.3 175.19-12.9L175.19-12.9 161.09-12.9 161.09-10.95Q161.09-6.05 162.34-3.55 163.59-1.05 166.69-1.05L166.69-1.05Q172.49-1.05 174.29-7.25L174.29-7.25 175.19-7.1Q174.24-3.5 171.76-1.5 169.29 0.5 164.34 0.5L164.34 0.5ZM161.14-16.35L161.14-13.9 166.29-13.9 166.29-16.35Q166.29-20.4 165.81-21.88 165.34-23.35 163.91-23.35 162.49-23.35 161.81-21.78 161.14-20.2 161.14-16.35L161.14-16.35ZM193.68-22.4L193.68-22.4Q191.83-22.4 190.43-20 189.03-17.6 189.03-14.3L189.03-14.3 189.03-0.9 192.58-0.9 192.58 0 176.98 0 176.98-0.9 179.73-0.9 179.73-22.9 176.98-22.9 176.98-23.8 189.03-23.8 189.03-19Q189.68-21.55 191.53-22.93 193.38-24.3 195.73-24.3 198.08-24.3 199.56-22.98 201.03-21.65 201.03-19.23 201.03-16.8 199.93-15.5 198.83-14.2 196.56-14.2 194.28-14.2 193.21-15.7 192.13-17.2 192.93-19.85L192.93-19.85 194.73-19.85Q195.98-22.4 193.68-22.4ZM203.81 0.5Q201.63 0.5 200.56-0.78 199.48-2.05 199.48-3.88 199.48-5.7 200.61-6.95 201.73-8.2 203.78-8.2 205.83-8.2 207.03-7.15 208.23-6.1 208.23-4 208.23-1.9 207.11-0.7 205.98 0.5 203.81 0.5ZM237.53-0.95L241.08-0.95 237.43-11.75 227.53-11.75 223.68-0.95 227.43-0.95 227.43 0 219.78 0 219.78-0.95 222.13-0.95 234.88-35.3 238.98-35.3 251.58-0.95 253.88-0.95 253.88 0 237.53 0 237.53-0.95ZM237.03-12.85L232.68-25.95 227.98-12.85 237.03-12.85ZM256.42 0.5L255.82 0.5 255.82-8.45 256.42-8.45Q257.72-4.1 259.92-2.35 262.12-0.6 265.42-0.6L265.42-0.6Q270.52-0.6 270.52-3.85L270.52-3.85Q270.52-5.25 269.27-5.95L269.27-5.95Q267.32-7.05 264.27-7.65L264.27-7.65Q260.87-8.55 258.57-10.05L258.57-10.05Q255.82-11.85 255.82-15.75 255.82-19.65 258.22-21.98 260.62-24.3 264.62-24.3L264.62-24.3Q267.07-24.3 269.67-23.15L269.67-23.15Q270.62-22.75 271.12-22.75 271.62-22.75 271.97-23.1 272.32-23.45 272.82-24.4L272.82-24.4 273.37-24.4 273.37-16.75 272.77-16.75Q270.22-23.25 264.87-23.25L264.87-23.25Q262.52-23.25 261.37-22.43 260.22-21.6 260.22-20.35L260.22-20.35Q260.22-19.6 260.57-19.18 260.92-18.75 261.12-18.55 261.32-18.35 261.77-18.13 262.22-17.9 262.52-17.78 262.82-17.65 263.45-17.45 264.07-17.25 264.37-17.2L264.37-17.2Q267.77-16.35 269.27-15.73 270.77-15.1 272.12-14.2L272.12-14.2Q274.87-12.3 274.87-8.08 274.87-3.85 272.37-1.68 269.87 0.5 265.52 0.5L265.52 0.5Q262.42 0.5 259.52-0.95L259.52-0.95Q258.92-1.35 258.57-1.35L258.57-1.35Q257.47-1.35 256.42 0.5L256.42 0.5ZM306.62 0L292.72 0 292.72-0.9 295.02-0.9 289.37-12.5 288.42-12.25 288.42-0.9 290.72-0.9 290.72 0 276.37 0 276.37-0.9 279.12-0.9 279.12-36.6 276.17-36.6 276.17-37.5 288.42-37.5 288.42-13.25 289.22-13.55 300.47-22.9 295.77-22.9 295.77-23.8 305.62-23.8 305.62-22.9 302.12-22.9 296.17-17.85 304.82-0.9 306.62-0.9 306.62 0ZM313.44 0.5Q311.27 0.5 310.19-0.78 309.12-2.05 309.12-3.88 309.12-5.7 310.24-6.95 311.37-8.2 313.42-8.2 315.47-8.2 316.67-7.15 317.87-6.1 317.87-4 317.87-1.9 316.74-0.7 315.62 0.5 313.44 0.5ZM330.16-33.9L330.16-35 348.16-35 348.16-33.9 342.86-33.9 342.86-1.1 344.66-1.1Q348.91-1.1 351.44-3.7 353.96-6.3 356.56-11.7L356.56-11.7 357.61-11.7 356.66 0 330.16 0 330.16-1.1 333.11-1.1 333.11-33.9 330.16-33.9ZM372.56 0.5Q366.11 0.5 362.89-2.83 359.66-6.15 359.66-12.08 359.66-18 363.29-21.15 366.91-24.3 372.51-24.3L372.51-24.3Q383.86-24.3 383.41-12.9L383.41-12.9 369.31-12.9 369.31-10.95Q369.31-6.05 370.56-3.55 371.81-1.05 374.91-1.05L374.91-1.05Q380.71-1.05 382.51-7.25L382.51-7.25 383.41-7.1Q382.46-3.5 379.99-1.5 377.51 0.5 372.56 0.5L372.56 0.5ZM369.36-16.35L369.36-13.9 374.51-13.9 374.51-16.35Q374.51-20.4 374.04-21.88 373.56-23.35 372.14-23.35 370.71-23.35 370.04-21.78 369.36-20.2 369.36-16.35L369.36-16.35ZM397.21-11.75L397.21-11.75 398.66-11.75 398.66-15.6Q398.66-20.35 398.13-21.98 397.61-23.6 396.11-23.6L396.11-23.6Q395.21-23.6 394.48-23.13 393.76-22.65 393.76-21.83 393.76-21 394.06-20.15L394.06-20.15 395.31-20.15Q395.71-19.1 395.71-17.63 395.71-16.15 394.46-15.08 393.21-14 391.31-14L391.31-14Q387.01-14 387.01-18.15L387.01-18.15Q387.01-24.3 397.46-24.3L397.46-24.3Q403.41-24.3 405.68-22.28 407.96-20.25 407.96-14.85L407.96-14.85 407.96-4.7Q407.96-2.1 409.41-2.1L409.41-2.1Q411.11-2.1 411.41-7.25L411.41-7.25 412.16-7.2Q411.96-2.8 410.51-1.15 409.06 0.5 405.76 0.5L405.76 0.5Q399.76 0.5 398.86-3.2L398.86-3.2Q398.21-1.3 396.91-0.4 395.61 0.5 393.11 0.5L393.11 0.5Q385.71 0.5 385.71-5.55L385.71-5.55Q385.71-9.1 388.53-10.43 391.36-11.75 397.21-11.75ZM395.21-5.6Q395.21-3 395.48-2.25 395.76-1.5 396.53-1.5 397.31-1.5 397.98-2.78 398.66-4.05 398.66-6.3L398.66-6.3 398.66-10.95 398.31-10.95Q395.21-10.95 395.21-6.4L395.21-6.4 395.21-5.6ZM429.36-22.4L429.36-22.4Q427.51-22.4 426.11-20 424.71-17.6 424.71-14.3L424.71-14.3 424.71-0.9 428.26-0.9 428.26 0 412.66 0 412.66-0.9 415.41-0.9 415.41-22.9 412.66-22.9 412.66-23.8 424.71-23.8 424.71-19Q425.36-21.55 427.21-22.93 429.06-24.3 431.41-24.3 433.76-24.3 435.23-22.98 436.71-21.65 436.71-19.23 436.71-16.8 435.61-15.5 434.51-14.2 432.23-14.2 429.96-14.2 428.88-15.7 427.81-17.2 428.61-19.85L428.61-19.85 430.41-19.85Q431.66-22.4 429.36-22.4ZM437.5-22.9L437.5-23.8 449.55-23.8 449.55-19.2Q450.35-21.5 452-22.9 453.65-24.3 457-24.3L457-24.3Q464.75-24.3 464.75-15.95L464.75-15.95 464.75-0.9 467.55-0.9 467.55 0 453.4 0 453.4-0.9 455.45-0.9 455.45-17.15Q455.45-20.15 455.05-21.03 454.65-21.9 453.6-21.9L453.6-21.9Q452-21.9 450.78-19.8 449.55-17.7 449.55-14.7L449.55-14.7 449.55-0.9 451.7-0.9 451.7 0 437.5 0 437.5-0.9 440.25-0.9 440.25-22.9 437.5-22.9ZM474.28 0.5Q472.1 0.5 471.03-0.78 469.95-2.05 469.95-3.88 469.95-5.7 471.08-6.95 472.2-8.2 474.25-8.2 476.3-8.2 477.5-7.15 478.7-6.1 478.7-4 478.7-1.9 477.58-0.7 476.45 0.5 474.28 0.5Z" opacity="1" transform="matrix(1,0,0,1,0,0)" fill="#ffffff" class="undefined-text-1" data-fill-palette-color="secondary" id="text-1"></path></svg></g></svg></g></svg></g></svg></g><g><svg viewBox="0 0 110.1859190076125 110.18546286535583" height="110.18546286535583" width="110.1859190076125"><g><svg xmlns="http://www.w3.org/2000/svg" xmlns:xlink="http://www.w3.org/1999/xlink" version="1.0" x="0" y="0" viewBox="4.667734146118164 4.6859588623046875 90.3050308227539 90.30465698242188" enable-background="new 0 0 100 100" xml:space="preserve" height="110.18546286535583" width="110.1859190076125" class="icon-icon-0" data-fill-palette-color="accent" id="icon-0"><path d="M17.504 35.743c-1.334 8.611 0.522 17.134 5.093 23.382 3.514 4.801 8.413 7.905 13.796 8.739 5.677 0.88 11.253-0.429 15.703-3.685 1.248-0.912 2.36-1.946 3.326-3.076-2.222 0.978-4.814 1.267-7.626 0.831-11.717-1.816-19.673-13.464-17.735-25.964 0.934-6.03 4.384-11.497 9.713-15.397 6.768-4.952 15.953-6.97 25.201-5.537 7.474 1.158 17.67 5.964 25.56 15.213 0 0-22.835-39.421-56.115-20.356C23.689 16.04 18.653 28.323 17.504 35.743z" fill="#ffffff" data-fill-palette-color="accent"></path><path d="M82.544 65.256c1.659-8.555 0.125-17.141-4.207-23.557-3.331-4.931-8.109-8.217-13.457-9.253-5.639-1.094-11.261 0.004-15.83 3.091-1.282 0.863-2.431 1.854-3.44 2.947 2.257-0.894 4.859-1.084 7.652-0.543 11.64 2.257 19.151 14.196 16.744 26.616-1.161 5.989-4.815 11.324-10.288 15.019-6.949 4.692-16.205 6.364-25.393 4.582C26.902 82.719 16.894 77.532 9.358 67.992c0 0 21.331 40.255 55.307 22.457C75.621 84.712 81.115 72.628 82.544 65.256z" fill="#ffffff" data-fill-palette-color="accent"></path><path d="M35.726 82.88c8.611 1.334 17.133-0.522 23.381-5.094 4.801-3.514 7.905-8.413 8.74-13.796 0.879-5.676-0.429-11.253-3.686-15.702-0.912-1.248-1.946-2.36-3.076-3.327 0.979 2.222 1.267 4.815 0.831 7.626-1.816 11.717-13.463 19.673-25.965 17.736-6.029-0.934-11.497-4.385-15.395-9.713-4.952-6.768-6.971-15.954-5.538-25.202 1.158-7.474 5.964-17.67 15.213-25.559 0 0-39.421 22.835-20.356 56.115C16.022 76.695 28.305 81.73 35.726 82.88z" fill="#ffffff" data-fill-palette-color="accent"></path><path d="M90.432 35.718c-5.738-10.955-17.822-16.45-25.194-17.879-8.554-1.659-17.141-0.125-23.557 4.208-4.931 3.331-8.217 8.108-9.254 13.456-1.094 5.64 0.004 11.261 3.092 15.83 0.863 1.282 1.854 2.431 2.946 3.441-0.894-2.257-1.084-4.859-0.542-7.652 2.257-11.64 14.196-19.151 26.615-16.744 5.99 1.161 11.324 4.816 15.019 10.289 4.693 6.949 6.363 16.204 4.583 25.392-1.44 7.423-6.626 17.431-16.167 24.966C67.973 91.025 108.228 69.694 90.432 35.718z" fill="#ffffff" data-fill-palette-color="accent"></path></svg></g></svg></g></svg></g><defs></defs></svg><rect width="395.52" height="81.67669718038066" fill="none" stroke="none" visibility="hidden"></rect></g></svg></g></svg>