<?xml version="1.0" standalone="no"?>
<!DOCTYPE svg PUBLIC "-//W3C//DTD SVG 20010904//EN"
 "http://www.w3.org/TR/2001/REC-SVG-20010904/DTD/svg10.dtd">
<svg version="1.0" xmlns="http://www.w3.org/2000/svg"
 width="1080.000000pt" height="1080.000000pt" viewBox="0 0 1080.000000 1080.000000"
 preserveAspectRatio="xMidYMid meet">

<g transform="translate(0.000000,1080.000000) scale(0.100000,-0.100000)"
fill="#000000" stroke="none">
<path d="M3830 7766 l0 -1465 1268 -3 c697 -2 1403 -2 1570 0 l302 3 0 1465 0
1464 -1570 0 -1570 0 0 -1464z m3050 -6 l0 -1390 -255 0 -255 0 -88 93 c-154
160 -332 357 -332 365 0 4 16 18 36 31 56 39 171 168 215 242 92 154 139 337
139 538 0 402 -187 722 -511 876 -255 121 -594 123 -845 6 -261 -122 -431
-344 -500 -651 -24 -107 -24 -358 -1 -465 102 -455 449 -734 914 -735 99 0
260 23 314 45 12 4 58 -38 173 -162 86 -92 156 -171 156 -175 0 -5 -479 -8
-1065 -8 l-1065 0 0 1390 0 1390 1485 0 1485 0 0 -1390z m-1284 590 c224 -58
376 -213 446 -457 20 -68 23 -100 23 -258 -1 -207 -11 -258 -78 -395 -77 -158
-215 -268 -397 -317 -88 -24 -290 -24 -380 0 -307 82 -480 339 -480 712 0 301
114 535 320 652 153 88 357 111 546 63z"/>
<path d="M3760 5045 l0 -205 30 0 30 0 0 151 0 151 75 -67 75 -67 72 67 73 66
3 -151 3 -150 29 0 30 0 0 205 0 205 -22 0 c-15 0 -51 -29 -105 -82 l-83 -83
-83 83 c-54 53 -90 82 -105 82 l-22 0 0 -205z"/>
<path d="M4877 5218 c-8 -18 -46 -108 -86 -200 -39 -92 -71 -169 -71 -172 0
-3 13 -6 30 -6 23 0 33 7 45 30 l16 30 115 0 116 0 11 -30 c10 -25 17 -30 45
-30 19 0 32 4 30 9 -1 5 -41 97 -87 205 l-85 196 -33 0 c-27 0 -35 -5 -46 -32z
m92 -150 c22 -53 41 -99 41 -102 0 -4 -40 -6 -89 -6 l-89 0 35 83 c19 45 39
93 44 106 5 13 11 22 13 20 2 -2 22 -48 45 -101z"/>
<path d="M5680 5045 l0 -205 35 0 c32 0 35 3 35 28 0 21 20 47 90 117 49 49
91 87 93 84 2 -2 25 -55 52 -116 l49 -113 37 0 38 0 -64 144 -63 143 62 62 61
61 -45 0 c-45 0 -46 0 -177 -137 l-132 -138 -1 138 0 137 -35 0 -35 0 0 -205z"/>
<path d="M6650 5045 l0 -205 185 0 185 0 0 30 0 30 -150 0 -150 0 0 60 0 60
151 0 150 0 -3 28 -3 27 -147 3 -148 3 0 54 0 55 150 0 150 0 0 30 0 30 -185
0 -185 0 0 -205z"/>
<path d="M4852 4377 c-87 -33 -141 -111 -142 -205 0 -129 82 -212 210 -212 95
0 170 48 204 132 39 93 2 216 -80 264 -52 30 -142 40 -192 21z m158 -77 c59
-42 78 -145 40 -208 -32 -52 -76 -74 -139 -69 -48 3 -58 8 -93 45 -38 41 -44
63 -38 132 9 106 141 164 230 100z"/>
<path d="M3767 4368 c6 -7 47 -58 91 -112 l82 -99 0 -99 0 -98 30 0 30 0 0 98
0 98 61 74 c34 41 74 92 91 113 l30 37 -40 0 c-38 0 -43 -4 -102 -77 -34 -43
-66 -78 -70 -78 -4 0 -36 35 -70 78 -59 73 -64 77 -102 77 -31 0 -38 -3 -31
-12z"/>
<path d="M5690 4258 c1 -179 15 -225 90 -275 25 -18 47 -23 93 -23 75 0 132
31 165 88 20 36 22 53 22 186 l0 146 -29 0 -29 0 -4 -142 c-4 -155 -13 -183
-64 -206 -36 -17 -91 -15 -121 5 -43 28 -53 69 -53 213 l0 130 -35 0 -35 0 0
-122z"/>
<path d="M6660 4171 l0 -211 30 0 30 0 0 90 0 91 81 -3 82 -3 36 -85 c34 -80
38 -85 69 -88 17 -2 32 1 32 5 0 5 -16 46 -35 91 l-35 83 35 35 c31 30 35 41
35 84 0 41 -5 56 -29 82 l-29 33 -151 3 -151 3 0 -210z m289 117 c14 -25 14
-29 -5 -55 -20 -27 -25 -28 -123 -31 l-101 -3 0 61 0 61 107 -3 c105 -3 108
-4 122 -30z"/>
<path d="M3860 3300 l0 -210 125 0 125 0 0 30 0 30 -90 0 -90 0 0 180 0 180
-35 0 -35 0 0 -210z"/>
<path d="M4890 3300 l0 -210 35 0 35 0 0 210 0 210 -35 0 -35 0 0 -210z"/>
<path d="M5700 3300 l0 -210 35 0 35 0 0 90 0 90 150 0 150 0 0 30 0 30 -150
0 -150 0 0 60 0 60 150 0 150 0 0 30 0 30 -185 0 -185 0 0 -210z"/>
<path d="M6650 3300 l0 -210 185 0 185 0 0 30 0 30 -150 0 -150 0 0 60 0 60
150 0 150 0 0 30 0 30 -150 0 -150 0 0 60 0 60 150 0 150 0 0 30 0 30 -185 0
-185 0 0 -210z"/>
<path d="M3790 2430 l0 -210 185 0 185 0 0 30 0 30 -150 0 -150 0 0 60 0 60
145 0 145 0 0 30 0 30 -145 0 -145 0 0 60 0 60 151 0 150 0 -3 28 -3 27 -182
3 -183 2 0 -210z"/>
<path d="M4894 2628 c-13 -19 -174 -391 -174 -400 0 -5 13 -8 30 -8 23 0 33 7
45 30 l16 30 115 0 116 0 11 -30 c9 -25 17 -30 44 -30 18 0 33 3 32 8 0 4 -40
97 -88 207 -79 181 -90 200 -113 203 -14 2 -30 -3 -34 -10z m75 -177 c22 -55
41 -102 41 -105 0 -3 -40 -6 -90 -6 l-89 0 35 83 c20 45 40 92 45 105 5 12 10
22 13 22 2 0 22 -45 45 -99z"/>
<path d="M5760 2622 c-71 -35 -88 -128 -36 -189 23 -26 30 -28 134 -33 120 -6
142 -15 142 -61 0 -53 -18 -59 -166 -59 l-134 0 0 -30 0 -30 141 0 c158 0 187
9 214 66 20 43 19 73 -5 112 -28 46 -73 62 -173 62 -69 0 -87 3 -100 18 -23
25 -21 58 3 82 18 18 33 20 135 20 l115 0 0 30 0 30 -117 0 c-92 0 -126 -4
-153 -18z"/>
<path d="M6634 2625 c3 -9 42 -60 86 -114 l80 -98 0 -96 0 -97 35 0 35 0 0 99
0 99 85 104 c47 58 85 108 85 111 0 4 -15 7 -34 7 -31 0 -41 -8 -97 -77 -34
-43 -65 -81 -69 -86 -3 -4 -37 31 -74 78 -62 78 -70 85 -103 85 -27 0 -34 -3
-29 -15z"/>
</g>
</svg>
